# MagicaVoxel @ Ephtracy

# group
g WallRainbow

# material
mtllib WallRainbow.mtl
usemtl palette

# normals
vn -1 0 0
vn 1 0 0
vn 0 0 1
vn 0 0 -1
vn 0 -1 0
vn 0 1 0

# texcoords
vt 0.0800781 0.5
vt 0.103516 0.5
vt 0.162109 0.5
vt 0.244141 0.5
vt 0.248047 0.5
vt 0.306641 0.5
vt 0.525391 0.5
vt 0.564453 0.5
vt 0.568359 0.5
vt 0.587891 0.5
vt 0.693359 0.5
vt 0.708984 0.5
vt 0.728516 0.5

# verts
v -45 0 45
v -45 0 -45
v -45 5 45
v -45 5 -45
v -45 9 45
v -45 9 -45
v -45 14 45
v -45 14 -45
v -45 15 45
v -45 15 -45
v -45 20 45
v -45 20 -45
v -45 26 45
v -45 26 -45
v -45 33 45
v -45 33 -45
v -45 37 45
v -45 37 -45
v -45 40 45
v -45 40 -45
v 39 0 45
v 39 0 -37
v 39 5 45
v 39 5 44
v 39 5 -37
v 39 9 45
v 39 9 44
v 39 9 -37
v 39 14 45
v 39 14 -37
v 39 20 45
v 39 20 -37
v 39 26 45
v 39 26 -37
v 39 33 45
v 39 33 -37
v 39 37 45
v 39 37 -37
v 39 40 45
v 39 40 -37
v -39 0 45
v -39 0 44
v -39 0 -37
v -39 5 45
v -39 5 44
v -39 5 -37
v -39 9 45
v -39 9 -37
v -39 14 45
v -39 14 -37
v -39 20 45
v -39 20 -37
v -39 26 45
v -39 26 -37
v -39 33 45
v -39 33 -37
v -39 37 45
v -39 37 -37
v -39 40 45
v -39 40 -37
v 45 0 45
v 45 0 -45
v 45 5 45
v 45 5 -45
v 45 9 45
v 45 9 -45
v 45 14 45
v 45 14 9
v 45 14 -45
v 45 15 9
v 45 15 -45
v 45 20 45
v 45 20 -45
v 45 26 45
v 45 26 -45
v 45 33 45
v 45 33 -45
v 45 37 45
v 45 37 -45
v 45 40 45
v 45 40 -45
v -45 0 45
v -45 5 45
v -45 9 45
v -45 14 45
v -45 15 45
v -45 20 45
v -45 26 45
v -45 33 45
v -45 37 45
v -45 40 45
v -41 14 45
v -41 15 45
v -40 5 45
v -40 9 45
v -39 0 45
v -39 5 45
v -39 9 45
v -39 14 45
v -39 20 45
v -39 26 45
v -39 33 45
v -39 37 45
v -39 40 45
v 39 0 45
v 39 5 45
v 39 9 45
v 39 14 45
v 39 20 45
v 39 26 45
v 39 33 45
v 39 37 45
v 39 40 45
v 45 0 45
v 45 5 45
v 45 9 45
v 45 14 45
v 45 20 45
v 45 26 45
v 45 33 45
v 45 37 45
v 45 40 45
v -39 0 -37
v -39 5 -37
v -39 9 -37
v -39 14 -37
v -39 20 -37
v -39 26 -37
v -39 33 -37
v -39 37 -37
v -39 40 -37
v -36 0 -37
v -36 5 -37
v 39 0 -37
v 39 5 -37
v 39 9 -37
v 39 14 -37
v 39 20 -37
v 39 26 -37
v 39 33 -37
v 39 37 -37
v 39 40 -37
v -45 0 -45
v -45 5 -45
v -45 9 -45
v -45 14 -45
v -45 15 -45
v -45 20 -45
v -45 26 -45
v -45 33 -45
v -45 37 -45
v -45 40 -45
v 45 0 -45
v 45 5 -45
v 45 9 -45
v 45 14 -45
v 45 15 -45
v 45 20 -45
v 45 26 -45
v 45 33 -45
v 45 37 -45
v 45 40 -45
v -45 0 45
v -39 0 45
v 39 0 45
v 45 0 45
v -44 0 44
v -39 0 44
v -39 0 -37
v -36 0 -37
v 39 0 -37
v -44 0 -44
v -36 0 -44
v -45 0 -45
v 45 0 -45
v -45 40 45
v -39 40 45
v 39 40 45
v 45 40 45
v -39 40 -37
v 39 40 -37
v -45 40 -45
v 45 40 -45

# faces
f 3/8/1 2/8/1 1/8/1
f 4/8/1 2/8/1 3/8/1
f 5/12/1 4/12/1 3/12/1
f 6/12/1 4/12/1 5/12/1
f 7/3/1 6/3/1 5/3/1
f 8/3/1 6/3/1 7/3/1
f 9/1/1 8/1/1 7/1/1
f 10/1/1 8/1/1 9/1/1
f 11/2/1 10/2/1 9/2/1
f 12/2/1 10/2/1 11/2/1
f 13/5/1 12/5/1 11/5/1
f 14/5/1 12/5/1 13/5/1
f 15/4/1 14/4/1 13/4/1
f 16/4/1 14/4/1 15/4/1
f 17/7/1 16/7/1 15/7/1
f 18/7/1 16/7/1 17/7/1
f 19/11/1 18/11/1 17/11/1
f 20/11/1 18/11/1 19/11/1
f 23/8/1 22/8/1 21/8/1
f 24/8/1 22/8/1 23/8/1
f 25/8/1 22/8/1 24/8/1
f 26/12/1 24/12/1 23/12/1
f 27/9/1 25/9/1 24/9/1
f 27/12/1 24/12/1 26/12/1
f 28/9/1 25/9/1 27/9/1
f 29/3/1 27/3/1 26/3/1
f 29/3/1 28/3/1 27/3/1
f 30/3/1 28/3/1 29/3/1
f 31/2/1 30/2/1 29/2/1
f 32/2/1 30/2/1 31/2/1
f 33/5/1 32/5/1 31/5/1
f 34/5/1 32/5/1 33/5/1
f 35/4/1 34/4/1 33/4/1
f 36/4/1 34/4/1 35/4/1
f 37/7/1 36/7/1 35/7/1
f 38/7/1 36/7/1 37/7/1
f 39/11/1 38/11/1 37/11/1
f 40/11/1 38/11/1 39/11/1
f 41/8/2 42/8/2 44/8/2
f 42/10/2 43/10/2 45/10/2
f 44/8/2 42/8/2 45/8/2
f 45/10/2 43/10/2 46/10/2
f 44/9/2 45/9/2 47/9/2
f 45/9/2 46/9/2 47/9/2
f 47/9/2 46/9/2 48/9/2
f 47/3/2 48/3/2 49/3/2
f 49/3/2 48/3/2 50/3/2
f 49/2/2 50/2/2 51/2/2
f 51/2/2 50/2/2 52/2/2
f 51/5/2 52/5/2 53/5/2
f 53/5/2 52/5/2 54/5/2
f 53/4/2 54/4/2 55/4/2
f 55/4/2 54/4/2 56/4/2
f 55/7/2 56/7/2 57/7/2
f 57/7/2 56/7/2 58/7/2
f 57/11/2 58/11/2 59/11/2
f 59/11/2 58/11/2 60/11/2
f 61/8/2 62/8/2 63/8/2
f 63/8/2 62/8/2 64/8/2
f 63/12/2 64/12/2 65/12/2
f 65/12/2 64/12/2 66/12/2
f 65/3/2 66/3/2 67/3/2
f 67/3/2 66/3/2 68/3/2
f 68/3/2 66/3/2 69/3/2
f 67/2/2 68/2/2 70/2/2
f 68/1/2 69/1/2 70/1/2
f 70/1/2 69/1/2 71/1/2
f 67/2/2 70/2/2 72/2/2
f 70/2/2 71/2/2 72/2/2
f 72/2/2 71/2/2 73/2/2
f 72/5/2 73/5/2 74/5/2
f 74/5/2 73/5/2 75/5/2
f 74/4/2 75/4/2 76/4/2
f 76/4/2 75/4/2 77/4/2
f 76/7/2 77/7/2 78/7/2
f 78/7/2 77/7/2 79/7/2
f 78/11/2 79/11/2 80/11/2
f 80/11/2 79/11/2 81/11/2
f 92/3/3 85/3/3 84/3/3
f 92/1/3 86/1/3 85/1/3
f 93/2/3 87/2/3 86/2/3
f 93/1/3 86/1/3 92/1/3
f 94/8/3 83/8/3 82/8/3
f 94/12/3 84/12/3 83/12/3
f 95/3/3 92/3/3 84/3/3
f 95/12/3 84/12/3 94/12/3
f 96/8/3 94/8/3 82/8/3
f 97/9/3 95/9/3 94/9/3
f 97/8/3 94/8/3 96/8/3
f 98/3/3 92/3/3 95/3/3
f 98/9/3 95/9/3 97/9/3
f 99/2/3 93/2/3 92/2/3
f 99/3/3 92/3/3 98/3/3
f 100/2/3 87/2/3 93/2/3
f 100/2/3 93/2/3 99/2/3
f 100/5/3 88/5/3 87/5/3
f 101/4/3 89/4/3 88/4/3
f 101/5/3 88/5/3 100/5/3
f 102/7/3 90/7/3 89/7/3
f 102/4/3 89/4/3 101/4/3
f 103/11/3 91/11/3 90/11/3
f 103/7/3 90/7/3 102/7/3
f 104/11/3 91/11/3 103/11/3
f 114/8/3 106/8/3 105/8/3
f 115/12/3 107/12/3 106/12/3
f 115/8/3 106/8/3 114/8/3
f 116/3/3 108/3/3 107/3/3
f 116/12/3 107/12/3 115/12/3
f 117/2/3 109/2/3 108/2/3
f 117/3/3 108/3/3 116/3/3
f 118/5/3 110/5/3 109/5/3
f 118/2/3 109/2/3 117/2/3
f 119/4/3 111/4/3 110/4/3
f 119/5/3 110/5/3 118/5/3
f 120/7/3 112/7/3 111/7/3
f 120/4/3 111/4/3 119/4/3
f 121/11/3 113/11/3 112/11/3
f 121/7/3 112/7/3 120/7/3
f 122/11/3 113/11/3 121/11/3
f 132/10/3 124/10/3 123/10/3
f 133/9/3 125/9/3 124/9/3
f 133/10/3 124/10/3 132/10/3
f 134/8/3 133/8/3 132/8/3
f 135/9/3 125/9/3 133/9/3
f 135/8/3 133/8/3 134/8/3
f 136/3/3 126/3/3 125/3/3
f 136/9/3 125/9/3 135/9/3
f 137/2/3 127/2/3 126/2/3
f 137/3/3 126/3/3 136/3/3
f 138/5/3 128/5/3 127/5/3
f 138/2/3 127/2/3 137/2/3
f 139/4/3 129/4/3 128/4/3
f 139/5/3 128/5/3 138/5/3
f 140/7/3 130/7/3 129/7/3
f 140/4/3 129/4/3 139/4/3
f 141/11/3 131/11/3 130/11/3
f 141/7/3 130/7/3 140/7/3
f 142/11/3 131/11/3 141/11/3
f 143/8/4 144/8/4 153/8/4
f 144/12/4 145/12/4 154/12/4
f 153/8/4 144/8/4 154/8/4
f 145/3/4 146/3/4 155/3/4
f 154/12/4 145/12/4 155/12/4
f 146/1/4 147/1/4 156/1/4
f 155/3/4 146/3/4 156/3/4
f 147/2/4 148/2/4 157/2/4
f 156/1/4 147/1/4 157/1/4
f 148/5/4 149/5/4 158/5/4
f 157/2/4 148/2/4 158/2/4
f 149/4/4 150/4/4 159/4/4
f 158/5/4 149/5/4 159/5/4
f 150/7/4 151/7/4 160/7/4
f 159/4/4 150/4/4 160/4/4
f 151/11/4 152/11/4 161/11/4
f 160/7/4 151/7/4 161/7/4
f 161/11/4 152/11/4 162/11/4
f 167/8/5 164/8/5 163/8/5
f 168/8/5 164/8/5 167/8/5
f 169/10/5 168/10/5 167/10/5
f 171/8/5 166/8/5 165/8/5
f 172/10/5 170/10/5 169/10/5
f 172/8/5 167/8/5 163/8/5
f 172/10/5 169/10/5 167/10/5
f 173/8/5 171/8/5 170/8/5
f 173/10/5 170/10/5 172/10/5
f 174/8/5 172/8/5 163/8/5
f 174/8/5 173/8/5 172/8/5
f 175/8/5 171/8/5 173/8/5
f 175/8/5 173/8/5 174/8/5
f 175/8/5 166/8/5 171/8/5
f 176/11/6 177/11/6 180/11/6
f 178/11/6 179/11/6 181/11/6
f 176/11/6 180/11/6 182/11/6
f 180/11/6 181/11/6 182/11/6
f 181/11/6 179/11/6 183/11/6
f 182/11/6 181/11/6 183/11/6
